
                  Another Fine Release Brought to you from - IMAGiNE
                   
                                                 
                                
                      Black Swan WEBSCR 720p AC3 XViD - IMAGiNE


Ripper ...........: IMAGiNE                     IMDB Rating.......:8.9/10
Video Codec.......: XVID                        Release Date......:29/01/11
Audio Codec.......:AC3                          Theatre Date......:03/12/10
Audio Bitrate.....:192                          Runtime.......:1h 47mn
Subtitles.........:NIL                          Language..........:ENGLISH
Resolution...... 1280 x 544                                 
IMDb URL..........:http://www.imdb.com/title/tt0947798/


DETAILS:

Video
ID                               : 0
Format                           : MPEG-4 Visual
Format profile                   : Advanced Simple@L5
Format settings, BVOP            : Yes
Format settings, QPel            : No
Format settings, GMC             : No warppoints
Format settings, Matrix          : Default (MPEG)
Muxing mode                      : Packed bitstream
Codec ID                         : XVID
Codec ID/Hint                    : XviD
Duration                         : 1h 48mn
Bit rate                         : 2 184 Kbps
Width                            : 1 280 pixels
Height                           : 544 pixels
Display aspect ratio             : 2.35
Frame rate                       : 23.976 fps
Resolution                       : 24 bits
Colorimetry                      : 4:2:0
Scan type                        : Progressive
Bits/(Pixel*Frame)               : 0.131
Stream size                      : 1.65 GiB (92%)
Writing library                  : XviD 1.2.1 (UTC 2008-12-04)

Audio
ID                               : 1
Format                           : AC-3
Format/Info                      : Audio Coding 3
Codec ID                         : 2000
Duration                         : 1h 48mn
Bit rate mode                    : Constant
Bit rate                         : 192 Kbps
Channel(s)                       : 2 channels
Channel positions                : L R
Sampling rate                    : 48.0 KHz
Stream size                      : 149 MiB (8%)
Alignment                        : Aligned on interleaves
Interleave, duration             : 42 ms (1.00 video frame)
Interleave, preload duration     : 512 ms


SOURCES:

VIDEO:127 Hours (2010).mp4 ...... Thanks
AUDIO:127 Hours (2010).mp4 ...... Thanks

NOTES:

IMAGiNE bringing you another release..........Black Swan 2010 

Well guess were well late with these webscreeners lol ....sorry folks we've been busy so running 
behind :(
Anyway heres one of them we've cleaned up :P
Source looked alot better than the other dvdscr that was out a while back,but still had faults.
For this release we made a script to resize,fix rgb colours,contrast,brightness and also made it sharper.
The audio was aac so we encode it to AC3.

Enjoy folks


SCREENS:






GREETS:

FLAWL3SS,ViSiON,FUSiON,Rx,SecretMyth,BirdFlu,ELEKTRI4KA,Serenity,Autotron
And to all the other p2p grps past and present 

Looking for these,syncers,cammers,silver supplier.....Have anything to offer????......
Contact us imaginegroup@hushmail.com